<svg width="24" height="24" viewBox="0 0 24 24" fill="none" xmlns="http://www.w3.org/2000/svg">
<circle cx="12" cy="12" r="12" fill="#F1FFE8"/>
<path d="M12.0002 7.19995C12.6367 7.19995 13.2472 7.45281 13.6973 7.90289C14.1473 8.35298 14.4002 8.96343 14.4002 9.59995C14.4002 10.2365 14.1473 10.8469 13.6973 11.297C13.2472 11.7471 12.6367 12 12.0002 12C11.3637 12 10.7532 11.7471 10.3031 11.297C9.85305 10.8469 9.6002 10.2365 9.6002 9.59995C9.6002 8.96343 9.85305 8.35298 10.3031 7.90289C10.7532 7.45281 11.3637 7.19995 12.0002 7.19995ZM12.0002 13.2C14.6522 13.2 16.8002 14.274 16.8002 15.6V16.8H7.2002V15.6C7.2002 14.274 9.3482 13.2 12.0002 13.2Z" fill="#8DC964"/>
</svg>
