<svg width="24" height="24" viewBox="0 0 24 24" fill="none" xmlns="http://www.w3.org/2000/svg">
<circle cx="12" cy="12" r="12" fill="#EBFEFF"/>
<path d="M15.6 13.8H14.4V15H15.6M15.6 11.4H14.4V12.6H15.6M16.8 16.2H12V15H13.2V13.8H12V12.6H13.2V11.4H12V10.2H16.8M10.8 8.99998H9.6V7.79998H10.8M10.8 11.4H9.6V10.2H10.8M10.8 13.8H9.6V12.6H10.8M10.8 16.2H9.6V15H10.8M8.4 8.99998H7.2V7.79998H8.4M8.4 11.4H7.2V10.2H8.4M8.4 13.8H7.2V12.6H8.4M8.4 16.2H7.2V15H8.4M12 8.99998V6.59998H6V17.4H18V8.99998H12Z" fill="#35D7E2"/>
</svg>
