<svg width="24" height="24" viewBox="0 0 24 24" fill="none" xmlns="http://www.w3.org/2000/svg">
<circle cx="12" cy="12" r="12" fill="#FFF2F2"/>
<g clip-path="url(#clip0_656_3355)">
<path d="M16.1996 6.60002H13.6916C13.4396 5.90402 12.7796 5.40002 11.9996 5.40002C11.2196 5.40002 10.5596 5.90402 10.3076 6.60002H7.79961C7.13961 6.60002 6.59961 7.14002 6.59961 7.80002V16.2C6.59961 16.86 7.13961 17.4 7.79961 17.4H16.1996C16.8596 17.4 17.3996 16.86 17.3996 16.2V7.80002C17.3996 7.14002 16.8596 6.60002 16.1996 6.60002ZM11.9996 6.60002C12.3296 6.60002 12.5996 6.87002 12.5996 7.20002C12.5996 7.53002 12.3296 7.80002 11.9996 7.80002C11.6696 7.80002 11.3996 7.53002 11.3996 7.20002C11.3996 6.87002 11.6696 6.60002 11.9996 6.60002ZM11.9996 9.00002C12.9956 9.00002 13.7996 9.80402 13.7996 10.8C13.7996 11.796 12.9956 12.6 11.9996 12.6C11.0036 12.6 10.1996 11.796 10.1996 10.8C10.1996 9.80402 11.0036 9.00002 11.9996 9.00002ZM15.5996 16.2H8.39961V15.36C8.39961 14.16 10.7996 13.5 11.9996 13.5C13.1996 13.5 15.5996 14.16 15.5996 15.36V16.2Z" fill="#FF9393"/>
</g>
<defs>
<clipPath id="clip0_656_3355">
<rect width="14.4" height="14.4" fill="white" transform="translate(4.7998 4.80005)"/>
</clipPath>
</defs>
</svg>
