<svg width="14" height="13" viewBox="0 0 14 13" fill="none" xmlns="http://www.w3.org/2000/svg">
<path d="M6.91197 10.9859C7.43075 10.9859 7.92919 10.9071 8.40728 10.7494C8.88537 10.5917 9.33294 10.3654 9.75 10.0704C9.33294 9.77543 8.88537 9.5491 8.40728 9.39143C7.92919 9.23376 7.43075 9.15493 6.91197 9.15493C6.39319 9.15493 5.89476 9.23376 5.41667 9.39143C4.93858 9.5491 4.491 9.77543 4.07394 10.0704C4.491 10.3654 4.93858 10.5917 5.41667 10.7494C5.89476 10.9071 6.39319 10.9859 6.91197 10.9859ZM8.52934 5.98122L7.65962 5.1115C7.71048 5.03013 7.75117 4.94366 7.78169 4.85211C7.81221 4.76056 7.82746 4.66901 7.82746 4.57747C7.82746 4.32316 7.73846 4.107 7.56045 3.92899C7.38243 3.75098 7.16628 3.66197 6.91197 3.66197C6.82042 3.66197 6.72887 3.67723 6.63732 3.70775C6.54577 3.73826 6.45931 3.77895 6.37793 3.82981L5.50822 2.96009C5.70149 2.78717 5.91764 2.65747 6.15669 2.57101C6.39574 2.48455 6.6475 2.44131 6.91197 2.44131C7.50196 2.44131 8.00548 2.64984 8.42253 3.0669C8.83959 3.48396 9.04812 3.98748 9.04812 4.57747C9.04812 4.84194 9.00489 5.0937 8.91843 5.33275C8.83196 5.57179 8.70227 5.78795 8.52934 5.98122ZM12.0082 9.46009L11.1232 8.57512C11.347 8.19875 11.5149 7.80203 11.6268 7.38498C11.7387 6.96792 11.7946 6.54069 11.7946 6.10329C11.7946 4.74022 11.3216 3.58568 10.3756 2.63967C9.42958 1.69366 8.27504 1.22066 6.91197 1.22066C6.47457 1.22066 6.04734 1.2766 5.63028 1.3885C5.21322 1.50039 4.81651 1.66823 4.44014 1.89202L3.55516 1.00704C4.0536 0.681534 4.58764 0.432316 5.15728 0.25939C5.72692 0.0864632 6.31182 0 6.91197 0C7.75626 0 8.54969 0.160211 9.29225 0.480634C10.0348 0.801056 10.6808 1.23592 11.23 1.78521C11.7793 2.33451 12.2142 2.98044 12.5346 3.723C12.855 4.46557 13.0153 5.259 13.0153 6.10329C13.0153 6.70344 12.9288 7.28834 12.7559 7.85798C12.5829 8.42762 12.3337 8.96166 12.0082 9.46009ZM6.91197 12.2066C6.06768 12.2066 5.27426 12.0464 4.53169 11.7259C3.78912 11.4055 3.14319 10.9707 2.5939 10.4214C2.0446 9.87207 1.60974 9.22614 1.28932 8.48357C0.968897 7.741 0.808685 6.94757 0.808685 6.10329C0.808685 5.50313 0.892606 4.91823 1.06045 4.34859C1.22829 3.77895 1.47496 3.23983 1.80047 2.73122L0 0.915493L0.869718 0.0457746L12.9542 12.1303L12.0845 13L2.7007 3.63146C2.47692 4.00782 2.30908 4.40454 2.19718 4.8216C2.08529 5.23865 2.02934 5.66588 2.02934 6.10329C2.02934 6.6831 2.12598 7.23748 2.31925 7.76643C2.51252 8.29538 2.79225 8.77856 3.15845 9.21596C3.70775 8.7989 4.30027 8.48103 4.93603 8.26232C5.57179 8.04362 6.23044 7.93427 6.91197 7.93427C7.29851 7.93427 7.68505 7.97496 8.0716 8.05634C8.45814 8.13772 8.83451 8.24961 9.2007 8.39202L11.23 10.4214C10.6502 11.0012 9.98905 11.4437 9.24648 11.7488C8.50391 12.054 7.72574 12.2066 6.91197 12.2066Z" fill="#39424D"/>
</svg>