<svg width="24" height="24" viewBox="0 0 24 24" fill="none" xmlns="http://www.w3.org/2000/svg">
<circle cx="12" cy="12" r="12" fill="#C3FFF3"/>
<path d="M11.9989 6.60022C10.931 6.60031 9.88701 6.91708 8.99909 7.51047C8.11116 8.10386 7.41913 8.94722 7.01051 9.93391C6.60189 10.9206 6.49502 12.0063 6.70342 13.0537C6.91183 14.1011 7.42614 15.0632 8.18133 15.8184C8.93652 16.5735 9.89867 17.0877 10.9461 17.296C11.9935 17.5043 13.0792 17.3974 14.0659 16.9887C15.0525 16.58 15.8958 15.8879 16.4891 14.9999C17.0825 14.1119 17.3991 13.0679 17.3991 12C17.3975 10.5683 16.828 9.19571 15.8156 8.1834C14.8032 7.17108 13.4306 6.60172 11.9989 6.60022ZM12.5388 14.6539V15.24H11.459V14.6568C10.1958 14.4584 9.83919 13.5755 9.83919 13.0798H10.919C10.9252 13.1571 11.0048 13.6198 11.9989 13.6198C12.7443 13.6198 13.0788 13.3041 13.0788 13.0798C13.0788 12.905 13.0788 12.5399 11.9989 12.5399C10.1195 12.5399 9.83872 11.5246 9.83872 10.9201C9.83872 10.2247 10.3942 9.5246 11.4585 9.34604V8.76748H12.5384V9.36536C12.8988 9.43896 13.2234 9.63297 13.459 9.91552C13.6945 10.1981 13.8269 10.5523 13.8345 10.9201H13.295L12.7551 10.93C12.7476 10.7246 12.6392 10.3802 12.0013 10.3802C11.2997 10.3802 10.9214 10.6586 10.9214 10.9201C10.9214 11.1222 10.9214 11.4601 12.0013 11.4601C13.8806 11.4601 14.1614 12.4754 14.1614 13.0798C14.1591 13.7757 13.6031 14.4754 12.5388 14.6539Z" fill="#179385"/>
</svg>
