<svg xmlns="http://www.w3.org/2000/svg" width="36.172" height="26.847" viewBox="0 0 36.172 26.847"><g transform="translate(0 -66)"><path d="M123.706,187.413h4.451a.706.706,0,1,0,0-1.413h-4.451a.706.706,0,1,0,0,1.413Z" transform="translate(-114.31 -111.522)" fill="#969696"/><path d="M123.706,247.413h4.451a.706.706,0,1,0,0-1.413h-4.451a.706.706,0,1,0,0,1.413Z" transform="translate(-114.31 -167.283)" fill="#969696"/><path d="M123.706,307.413h4.451a.706.706,0,1,0,0-1.413h-4.451a.706.706,0,1,0,0,1.413Z" transform="translate(-114.31 -223.044)" fill="#969696"/><path d="M311.157,186h-4.451a.706.706,0,0,0,0,1.413h4.451a.706.706,0,1,0,0-1.413Z" transform="translate(-284.381 -111.522)" fill="#969696"/><path d="M311.157,246h-4.451a.706.706,0,0,0,0,1.413h4.451a.706.706,0,1,0,0-1.413Z" transform="translate(-284.381 -167.283)" fill="#969696"/><circle cx="0.839" cy="0.839" r="0.839" transform="translate(26.008 91.169)" fill="#969696"/><path d="M35.466,68.119H31.721V66.706A.706.706,0,0,0,31.015,66H23.2a7.884,7.884,0,0,0-5.117,1.867A7.884,7.884,0,0,0,12.969,66H5.157a.706.706,0,0,0-.706.706v1.413H.706A.706.706,0,0,0,0,68.826V92.14a.706.706,0,0,0,.706.706H23.6a.706.706,0,1,0,0-1.413h-4.8V90.322A6.483,6.483,0,0,1,23.2,88.608h7.812a.706.706,0,0,0,.706-.706V69.532h3.038v21.9h-4.8a.706.706,0,0,0,0,1.413h5.511a.706.706,0,0,0,.706-.706V68.826A.706.706,0,0,0,35.466,68.119Zm-29.6-.706h7.105a6.483,6.483,0,0,1,4.411,1.714v19.4a7.888,7.888,0,0,0-4.411-1.334H5.864ZM1.413,91.434v-21.9H4.451V87.9a.706.706,0,0,0,.706.706h7.812a6.483,6.483,0,0,1,4.411,1.714v1.112Zm28.9-4.239H23.2a7.888,7.888,0,0,0-4.411,1.334v-19.4A6.483,6.483,0,0,1,23.2,67.413h7.105Z" fill="#969696"/></g></svg>