<svg xmlns="http://www.w3.org/2000/svg" viewBox="0 0 224 185.97"><defs><style>.cls-1,.cls-4{fill:#d6f5e6;}.cls-1,.cls-2{stroke:#4cb980;stroke-width:4.69px;}.cls-1{stroke-miterlimit:10;}.cls-2{fill:#fff;}.cls-2,.cls-5{stroke-linecap:round;stroke-linejoin:round;}.cls-3{fill:#4cb980;}.cls-5{fill:none;stroke:#d6f5e6;stroke-width:4px;}.cls-6{fill:#b9eace;}</style></defs><g id="Layer_2" data-name="Layer 2"><g id="Layer_1-2" data-name="Layer 1"><path class="cls-1" d="M43,49l72.16-17.38a5.38,5.38,0,0,1,6.43,4.08l22,91.15a5.37,5.37,0,0,1-3.87,6.55L67.47,150.77A5.39,5.39,0,0,1,61,146.7l-22-91.15A5.39,5.39,0,0,1,43,49Z"/><path class="cls-2" d="M152.38,76.85V34.77a5.47,5.47,0,0,0-5.47-5.47H70.35a5.47,5.47,0,0,0-5.47,5.47v93.76A5.46,5.46,0,0,0,70.35,134h76.56a5.46,5.46,0,0,0,5.47-5.46v-9.15"/><path class="cls-3" d="M183.25,73.21l-6-6a6.39,6.39,0,0,0-8.83,0L136.27,99.44l-4.44,16.27-1.08,1.08a2.08,2.08,0,0,0,0,2.94v0l0,0a2.08,2.08,0,0,0,3,0l1.08-1.08,16.27-4.44L183.25,82A6.24,6.24,0,0,0,183.25,73.21ZM141.1,100.52,162.52,79.1,171.4,88,150,109.4Zm-1.89,4,6.74,6.74-9.26,2.52Zm41.08-25.47L174.36,85l-8.88-8.88,5.94-5.94a2.1,2.1,0,0,1,2.91,0l6,6A2.06,2.06,0,0,1,180.29,79.08Z"/><path class="cls-4" d="M81.41,91.39H133a2,2,0,1,0,0-4H81.41a2,2,0,1,0,0,4Z"/><path class="cls-4" d="M125.08,99.34H81.41a2,2,0,1,0,0,4h43.67a2,2,0,1,0,0-4Z"/><path class="cls-4" d="M81.41,55.66h25.8a2,2,0,1,0,0-4H81.41a2,2,0,1,0,0,4Z"/><path class="cls-4" d="M107.21,115.22a2,2,0,1,0,0-4H81.41a2,2,0,1,0,0,4Z"/><path class="cls-4" d="M139,63.6H81.41a2,2,0,1,0,0,4H139a2,2,0,0,0,0-4Z"/><path class="cls-4" d="M81.41,79.48H109.2a2,2,0,0,0,0-4H81.41a2,2,0,1,0,0,4Z"/><path class="cls-4" d="M141,77.5a2,2,0,0,0-2-2h-13.9a2,2,0,0,0,0,4H139A2,2,0,0,0,141,77.5Z"/><path class="cls-4" d="M118.55,78.91a2.1,2.1,0,0,0,.58-1.41,2,2,0,1,0-.58,1.41Z"/><line class="cls-5" x1="2" y1="172.7" x2="222" y2="172.7"/><line class="cls-5" x1="44.96" y1="183.97" x2="146.7" y2="183.97"/><line class="cls-5" x1="159.61" y1="183.97" x2="179.04" y2="183.97"/><path class="cls-6" d="M190.45,49.14s.37,2.65-2.73,2.59c0,0,2.66,0,2.59,2.52a3,3,0,0,1,2.68-2.4S190.93,52.32,190.45,49.14Z"/><path class="cls-6" d="M96.14,0s.37,2.65-2.73,2.59c0,0,2.66,0,2.59,2.52a3,3,0,0,1,2.68-2.4S96.62,3.19,96.14,0Z"/><path class="cls-6" d="M8.53,49.14s.37,2.65-2.73,2.59c0,0,2.67,0,2.59,2.52a3,3,0,0,1,2.69-2.4S9,52.32,8.53,49.14Z"/><path class="cls-6" d="M185.17,117.81s.37,2.66-2.73,2.59c0,0,2.66,0,2.59,2.52a3,3,0,0,1,2.69-2.39S185.65,121,185.17,117.81Z"/><path class="cls-6" d="M21.28,129.74s.37,2.65-2.73,2.59c0,0,2.66,0,2.59,2.52a3,3,0,0,1,2.69-2.4S21.76,132.93,21.28,129.74Z"/><path class="cls-6" d="M27.5,92.92a3.16,3.16,0,1,1-3.15-3.15A3.16,3.16,0,0,1,27.5,92.92Zm-1.56,0a1.6,1.6,0,1,0-1.59,1.59A1.59,1.59,0,0,0,25.94,92.92Z"/><path class="cls-6" d="M35.55,19.42a2.76,2.76,0,1,0,2.76-2.77A2.77,2.77,0,0,0,35.55,19.42Z"/><path class="cls-6" d="M200.76,85a2.77,2.77,0,1,0,2.76-2.76A2.77,2.77,0,0,0,200.76,85Z"/><path class="cls-6" d="M161.23,13.5a3.16,3.16,0,1,1-3.15-3.16A3.15,3.15,0,0,1,161.23,13.5Zm-1.56,0a1.59,1.59,0,1,0-1.59,1.59A1.59,1.59,0,0,0,159.67,13.5Z"/></g></g></svg>