<svg xmlns="http://www.w3.org/2000/svg" width="96.602" height="86.791" viewBox="0 0 96.602 86.791">
  <g id="error-blocked" transform="translate(0 -26.001)">
    <g id="Group_112" data-name="Group 112" transform="translate(64.885 101.15)">
      <g id="Group_111" data-name="Group 111">
        <path id="Path_151" data-name="Path 151" d="M347.6,425.4a1.886,1.886,0,0,0-2.5-.924l-.071.033a1.887,1.887,0,1,0,1.524,3.452l.1-.047.022-.01A1.887,1.887,0,0,0,347.6,425.4Z" transform="translate(-343.896 -424.301)" fill="#ff2c2c"/>
      </g>
    </g>
    <g id="Group_114" data-name="Group 114" transform="translate(69.726 93.44)">
      <g id="Group_113" data-name="Group 113">
        <path id="Path_152" data-name="Path 152" d="M376.628,383.774a1.887,1.887,0,0,0-2.625.477,21.373,21.373,0,0,1-1.937,2.4,23.14,23.14,0,0,1-1.846,1.734,1.887,1.887,0,1,0,2.445,2.874,26.579,26.579,0,0,0,2.16-2.034,25.162,25.162,0,0,0,2.28-2.824A1.887,1.887,0,0,0,376.628,383.774Z" transform="translate(-369.556 -383.438)" fill="#ff2c2c"/>
      </g>
    </g>
    <g id="Group_116" data-name="Group 116" transform="translate(0 26.001)">
      <g id="Group_115" data-name="Group 115">
        <path id="Path_153" data-name="Path 153" d="M90.965,26H5.637A5.643,5.643,0,0,0,0,31.638V84.514a5.643,5.643,0,0,0,5.637,5.637H45.369a31.536,31.536,0,0,0,8.822,15.407c4.859,4.72,10.428,7.234,12.581,7.234s7.722-2.514,12.581-7.234a31.536,31.536,0,0,0,8.822-15.407h2.79A5.643,5.643,0,0,0,96.6,84.514V31.638A5.643,5.643,0,0,0,90.965,26ZM85.281,82.418a27.852,27.852,0,0,1-8.438,20.317c-4.566,4.485-9.251,6.23-10.071,6.283-.82-.053-5.5-1.8-10.071-6.283a27.852,27.852,0,0,1-8.438-20.317V73.127A84.465,84.465,0,0,0,66.772,65.3a87.364,87.364,0,0,0,18.509,7.827Zm7.547,2.1a1.866,1.866,0,0,1-1.863,1.864H88.831a34.815,34.815,0,0,0,.224-3.959V71.7a1.887,1.887,0,0,0-1.392-1.821,83.263,83.263,0,0,1-19.938-8.384,1.887,1.887,0,0,0-1.906,0,80.969,80.969,0,0,1-19.938,8.384A1.887,1.887,0,0,0,44.489,71.7V82.418a34.77,34.77,0,0,0,.224,3.959H5.637a1.865,1.865,0,0,1-1.863-1.864v-32.1H92.828Zm0-35.872H3.773V41.095H92.828Zm0-11.32H3.773V31.638a1.865,1.865,0,0,1,1.863-1.863H90.965a1.865,1.865,0,0,1,1.863,1.863Z" transform="translate(0 -26.001)" fill="#ff2c2c"/>
      </g>
    </g>
    <g id="Group_118" data-name="Group 118" transform="translate(7.547 65.623)">
      <g id="Group_117" data-name="Group 117">
        <path id="Path_154" data-name="Path 154" d="M55.094,236a8.5,8.5,0,0,0-3.3.669,8.49,8.49,0,1,0,0,15.644A8.49,8.49,0,1,0,55.094,236Zm-6.6,13.207a4.717,4.717,0,1,1,4.717-4.717A4.722,4.722,0,0,1,48.492,249.21Zm7.071-.023a8.469,8.469,0,0,0,0-9.387,4.717,4.717,0,0,1,0,9.387Z" transform="translate(-40.001 -236.003)" fill="#ff2c2c"/>
      </g>
    </g>
    <g id="Group_120" data-name="Group 120" transform="translate(7.547 57.132)">
      <g id="Group_119" data-name="Group 119">
        <path id="Path_155" data-name="Path 155" d="M51.591,191h-9.7a1.887,1.887,0,0,0,0,3.773h9.7a1.887,1.887,0,1,0,0-3.773Z" transform="translate(-39.999 -191.001)" fill="#ff2c2c"/>
      </g>
    </g>
    <g id="Group_122" data-name="Group 122" transform="translate(22.739 57.132)">
      <g id="Group_121" data-name="Group 121">
        <path id="Path_156" data-name="Path 156" d="M122.5,191h-.089a1.887,1.887,0,0,0,0,3.773h.089a1.887,1.887,0,1,0,0-3.773Z" transform="translate(-120.522 -191.001)" fill="#ff2c2c"/>
      </g>
    </g>
    <g id="Group_124" data-name="Group 124" transform="translate(58.882 75.628)">
      <g id="Group_123" data-name="Group 123">
        <path id="Path_157" data-name="Path 157" d="M327.307,301.589l-4.669-4.669,4.669-4.669a1.887,1.887,0,1,0-2.668-2.668l-4.669,4.669-4.669-4.669a1.887,1.887,0,1,0-2.668,2.668l4.669,4.669-4.669,4.669a1.887,1.887,0,1,0,2.668,2.668l4.669-4.669,4.669,4.669a1.887,1.887,0,0,0,2.668-2.668Z" transform="translate(-312.079 -289.03)" fill="#ff2c2c"/>
      </g>
    </g>
  </g>
</svg>
