<svg id="search" xmlns="http://www.w3.org/2000/svg" width="40" height="40" viewBox="0 0 40 40">
  <path id="Path_8386" data-name="Path 8386" d="M8.89,151.676l-1.4,5.213L2.39,157a20.092,20.092,0,0,1-.148-18.729h0l4.544.833,1.99,4.516a11.97,11.97,0,0,0,.113,8.059Z" transform="translate(0 -127.493)" fill="#fbbb00"/>
  <path id="Path_8387" data-name="Path 8387" d="M280.894,208.176a20.049,20.049,0,0,1-7.15,19.388h0l-5.723-.292-.81-5.056a11.954,11.954,0,0,0,5.143-6.1H261.628v-7.935h19.266Z" transform="translate(-241.244 -191.98)" fill="#518ef8"/>
  <path id="Path_8388" data-name="Path 8388" d="M60.731,320.865h0a20.064,20.064,0,0,1-30.223-6.136l6.5-5.321a11.929,11.929,0,0,0,17.19,6.107Z" transform="translate(-28.119 -285.282)" fill="#28b446"/>
  <path id="Path_8389" data-name="Path 8389" d="M59.241,4.618l-6.5,5.32a11.927,11.927,0,0,0-17.584,6.245l-6.534-5.349h0A20.061,20.061,0,0,1,59.241,4.618Z" transform="translate(-26.381)" fill="#f14336"/>
</svg>
