<svg width="24" height="24" viewBox="0 0 24 24" fill="none" xmlns="http://www.w3.org/2000/svg">
<circle cx="12" cy="12" r="12" fill="#FFF3DA"/>
<path d="M10.8 14.4V13.8H6.6V16.2C6.6 16.866 7.134 17.4 7.8 17.4H16.2C16.866 17.4 17.4 16.866 17.4 16.2V13.8H13.2V14.4H10.8ZM16.8 8.99998H14.4V7.79998L13.2 6.59998H10.8L9.6 7.79998V8.99998H7.2C6.54 8.99998 6 9.53998 6 10.2V12C6 12.666 6.534 13.2 7.2 13.2H10.8V12H13.2V13.2H16.8C17.46 13.2 18 12.66 18 12V10.2C18 9.53998 17.46 8.99998 16.8 8.99998ZM13.2 8.99998H10.8V7.79998H13.2V8.99998Z" fill="#EF961A"/>
</svg>
