<svg xmlns="http://www.w3.org/2000/svg" width="233.687" height="31.767" viewBox="0 0 233.687 31.767">
  <g id="Group_59" data-name="Group 59" transform="translate(-93.386 -9.653)">
    <path id="Path_89" data-name="Path 89" d="M14.34-11.758H8.419V0H3.107V-30.57h10.75q5.291,0,8.167,2.375A8.4,8.4,0,0,1,24.9-21.324a8.606,8.606,0,0,1-1.48,5.138A9.419,9.419,0,0,1,19.3-13L26.161-.273V0h-5.69ZM8.419-16.041h5.459a6.071,6.071,0,0,0,4.2-1.354A4.723,4.723,0,0,0,19.589-21.1a5.028,5.028,0,0,0-1.4-3.8,5.931,5.931,0,0,0-4.168-1.386H8.419ZM39.452.42a10.556,10.556,0,0,1-7.863-3.055,11.082,11.082,0,0,1-3.013-8.136v-.63a13.632,13.632,0,0,1,1.312-6.078,9.988,9.988,0,0,1,3.685-4.168,9.742,9.742,0,0,1,5.291-1.491,8.917,8.917,0,0,1,7.17,2.96q2.53,2.96,2.53,8.377v2.058H33.72A6.822,6.822,0,0,0,35.6-5.291a5.642,5.642,0,0,0,4.147,1.638,6.909,6.909,0,0,0,5.711-2.834l2.75,2.625A9.185,9.185,0,0,1,44.564-.7,11.4,11.4,0,0,1,39.452.42Zm-.609-19.463a4.3,4.3,0,0,0-3.391,1.47A7.618,7.618,0,0,0,33.8-13.479h9.721v-.378a6.2,6.2,0,0,0-1.365-3.874A4.264,4.264,0,0,0,38.843-19.043ZM61.854-3.653a4.613,4.613,0,0,0,3.17-1.113,3.8,3.8,0,0,0,1.344-2.75h4.808a7.494,7.494,0,0,1-1.323,3.958A8.676,8.676,0,0,1,66.495-.651,10.011,10.011,0,0,1,61.917.42a9.686,9.686,0,0,1-7.559-3.086q-2.792-3.086-2.792-8.524v-.525a12.038,12.038,0,0,1,2.771-8.3A9.6,9.6,0,0,1,61.9-23.138a9.334,9.334,0,0,1,6.6,2.362,8.461,8.461,0,0,1,2.677,6.2H66.369a4.672,4.672,0,0,0-1.333-3.212,4.29,4.29,0,0,0-3.181-1.26,4.49,4.49,0,0,0-3.821,1.8A9.16,9.16,0,0,0,56.668-11.8v.819A9.312,9.312,0,0,0,58-5.469,4.486,4.486,0,0,0,61.854-3.653Zm25.069-14.4a12.625,12.625,0,0,0-2.079-.168q-3.506,0-4.724,2.688V0h-5.1V-22.718H79.89l.126,2.541a5.749,5.749,0,0,1,5.123-2.96,4.776,4.776,0,0,1,1.806.294ZM103.91-2.226A7.913,7.913,0,0,1,97.527.42a7.052,7.052,0,0,1-5.6-2.163q-1.9-2.163-1.9-6.257V-22.718h5.1V-8.062q0,4.325,3.59,4.325,3.716,0,5.018-2.667V-22.718h5.1V0h-4.808ZM119.468,0h-5.1V-22.718h5.1Zm-5.417-28.618a2.708,2.708,0,0,1,.745-1.953,2.815,2.815,0,0,1,2.131-.777,2.851,2.851,0,0,1,2.142.777,2.687,2.687,0,0,1,.756,1.953,2.625,2.625,0,0,1-.756,1.921,2.873,2.873,0,0,1-2.142.766A2.837,2.837,0,0,1,114.8-26.7,2.645,2.645,0,0,1,114.051-28.618Zm17.364.378v5.522h4.01v3.779h-4.01V-6.257a2.793,2.793,0,0,0,.514,1.879,2.385,2.385,0,0,0,1.837.577,7.86,7.86,0,0,0,1.785-.21V-.063a12.566,12.566,0,0,1-3.359.483q-5.879,0-5.879-6.488V-18.938h-3.737v-3.779h3.737V-28.24ZM173.848-9.952a11.038,11.038,0,0,1-3.611,7.632A12.312,12.312,0,0,1,161.859.42a11.921,11.921,0,0,1-6.435-1.732,11.37,11.37,0,0,1-4.294-4.924,17.768,17.768,0,0,1-1.575-7.412V-16.5a17.9,17.9,0,0,1,1.533-7.622,11.551,11.551,0,0,1,4.4-5.081,12.27,12.27,0,0,1,6.624-1.785,11.816,11.816,0,0,1,8.146,2.74,11.449,11.449,0,0,1,3.59,7.758h-5.291a7.551,7.551,0,0,0-1.921-4.756,6.35,6.35,0,0,0-4.525-1.459,6.2,6.2,0,0,0-5.323,2.532q-1.858,2.532-1.9,7.429v2.711q0,4.959,1.774,7.565a5.887,5.887,0,0,0,5.2,2.606,6.868,6.868,0,0,0,4.7-1.407,7.335,7.335,0,0,0,1.995-4.682Zm15.978-1.806H183.9V0h-5.312V-30.57h10.75q5.291,0,8.167,2.375a8.4,8.4,0,0,1,2.876,6.872,8.606,8.606,0,0,1-1.48,5.138A9.419,9.419,0,0,1,194.781-13l6.866,12.73V0h-5.69ZM183.9-16.041h5.459a6.071,6.071,0,0,0,4.2-1.354,4.723,4.723,0,0,0,1.512-3.706,5.028,5.028,0,0,0-1.4-3.8,5.931,5.931,0,0,0-4.168-1.386H183.9ZM212.313-30.57l8.818,23.432,8.8-23.432h6.866V0H231.5V-10.078l.525-13.479L223,0h-3.8l-9.007-23.537.525,13.458V0h-5.291V-30.57Z" transform="translate(90.279 41)" fill="#fff"/>
  </g>
</svg>
