<svg xmlns="http://www.w3.org/2000/svg" viewBox="0 0 133.402 17.187">
  <defs>
    <style>
      .cls-1 {
        fill: #8d8d8d;
      }

      .cls-2 {
        fill: #064be2;
      }
    </style>
  </defs>
  <g id="Group_3" data-name="Group 3" transform="translate(-141.318 -22.61)">
    <g id="logo-recruitcrm" transform="translate(141.318 22.61)">
      <g id="Group_2" data-name="Group 2" transform="translate(0 0)">
        <path id="Path_27" data-name="Path 27" class="cls-1" d="M6.5,22.673V6.1h7.263a5.767,5.767,0,0,1,3.99,1.432,4.934,4.934,0,0,1,1.535,3.785,5.956,5.956,0,0,1-.307,1.944,2.91,2.91,0,0,1-.921,1.432,4.809,4.809,0,0,1-1.228.921,5.916,5.916,0,0,1-1.432.512l4.092,6.547H16.116l-3.683-6.24H9.364v6.24Zm2.864-8.8h3.99a2.787,2.787,0,0,0,2.046-.716,2.717,2.717,0,0,0,0-3.887,2.787,2.787,0,0,0-2.046-.716H9.364Z" transform="translate(-6.5 -5.895)"/>
        <path id="Path_28" data-name="Path 28" class="cls-1" d="M20.2,16.54a6.645,6.645,0,0,1,.818-3.171,5.686,5.686,0,0,1,2.148-2.251,5.449,5.449,0,0,1,3.171-.818,5.572,5.572,0,0,1,4.3,1.841,6.605,6.605,0,0,1,1.637,4.706v.614H22.962a3.929,3.929,0,0,0,1.125,2.353,3.655,3.655,0,0,0,2.66.921,5.793,5.793,0,0,0,1.841-.307,3.852,3.852,0,0,0,1.535-.921l1.228,1.739a5.842,5.842,0,0,1-2.148,1.33,7.84,7.84,0,0,1-2.762.409,6.342,6.342,0,0,1-4.5-1.739A7.035,7.035,0,0,1,20.2,16.54Zm2.762-.921h6.752a4.351,4.351,0,0,0-.2-1.125,2.123,2.123,0,0,0-.614-1.023,4.006,4.006,0,0,0-1.023-.818,3.416,3.416,0,0,0-1.535-.307,3.268,3.268,0,0,0-1.432.307,2.611,2.611,0,0,0-1.023.716,2.123,2.123,0,0,0-.614,1.023A5.4,5.4,0,0,0,22.962,15.62Z" transform="translate(-6.185 -5.799)"/>
        <path id="Path_29" data-name="Path 29" class="cls-1" d="M33.8,16.54a5.961,5.961,0,0,1,6.24-6.24,5.286,5.286,0,0,1,4.6,2.148L42.9,14.085a3.247,3.247,0,0,0-2.762-1.535,3.547,3.547,0,0,0-2.66,1.125A3.946,3.946,0,0,0,36.46,16.54,3.79,3.79,0,0,0,37.483,19.4a3.547,3.547,0,0,0,2.66,1.125A3.4,3.4,0,0,0,42.9,19.1l1.739,1.637a5.286,5.286,0,0,1-4.6,2.148,6.342,6.342,0,0,1-4.5-1.739A6.016,6.016,0,0,1,33.8,16.54Z" transform="translate(-5.872 -5.799)"/>
        <path id="Path_30" data-name="Path 30" class="cls-1" d="M46.6,22.579V10.507h2.66v1.739A4.679,4.679,0,0,1,51,10.814a4.3,4.3,0,0,1,2.148-.614v2.558c-.2,0-.512-.1-.818-.1a4.151,4.151,0,0,0-1.739.512,3.694,3.694,0,0,0-1.33,1.125v8.184l-2.66.1Z" transform="translate(-5.577 -5.801)"/>
        <path id="Path_31" data-name="Path 31" class="cls-1" d="M55,19.093V10.6h2.66v7.57a2.206,2.206,0,0,0,.614,1.841,2.483,2.483,0,0,0,1.841.512,3.363,3.363,0,0,0,1.739-.409,4.844,4.844,0,0,0,1.33-1.125V10.5h2.66V22.572h-2.66V20.935a6.073,6.073,0,0,1-1.841,1.33,4.817,4.817,0,0,1-2.455.512,3.506,3.506,0,0,1-2.864-1.023A3.376,3.376,0,0,1,55,19.093Z" transform="translate(-5.384 -5.794)"/>
        <path id="Path_32" data-name="Path 32" class="cls-1" d="M69.012,8.662A1.643,1.643,0,0,1,68.5,7.537a1.638,1.638,0,0,1,3.274,0,1.593,1.593,0,0,1-2.762,1.125Zm-.1,14.015V10.606h2.66V22.678Z" transform="translate(-5.073 -5.9)"/>
        <path id="Path_33" data-name="Path 33" class="cls-1" d="M73.3,12.824V10.574h1.944V7.3H77.9v3.274h2.455v2.251H77.9v6.343a1.527,1.527,0,0,0,.307,1.023.93.93,0,0,0,.818.409,1.741,1.741,0,0,0,.716-.1,2.236,2.236,0,0,0,.512-.307l.614,1.944a3.369,3.369,0,0,1-2.455.818,3.015,3.015,0,0,1-2.251-.818,3.185,3.185,0,0,1-.818-2.251V12.927l-2.046-.1Z" transform="translate(-4.962 -5.868)"/>
      </g>
      <path id="Path_34" data-name="Path 34" class="cls-2" d="M88.716,17.969A9.587,9.587,0,0,1,88,14.491a8.157,8.157,0,0,1,.716-3.478,6.921,6.921,0,0,1,1.841-2.66A8.466,8.466,0,0,1,93.32,6.614,9.011,9.011,0,0,1,96.7,6a7.261,7.261,0,0,1,6.547,3.683l-2.455,1.228a4.727,4.727,0,0,0-1.739-1.739A4.865,4.865,0,0,0,96.7,8.455a5.1,5.1,0,0,0-3.99,1.637,6.214,6.214,0,0,0-1.637,4.3,5.782,5.782,0,0,0,1.637,4.3,5.25,5.25,0,0,0,3.99,1.637,4.667,4.667,0,0,0,4.092-2.353l2.455,1.228A7.374,7.374,0,0,1,96.7,22.88a9.011,9.011,0,0,1-3.376-.614,9.7,9.7,0,0,1-2.762-1.739A6.57,6.57,0,0,1,88.716,17.969Z" transform="translate(-4.624 -5.898)"/>
      <path id="Path_35" data-name="Path 35" class="cls-2" d="M105.1,22.668V6.3h7.161a5.507,5.507,0,0,1,3.887,1.432,4.641,4.641,0,0,1,1.432,3.683,5.956,5.956,0,0,1-.307,1.944,3.468,3.468,0,0,1-.921,1.432,4.81,4.81,0,0,1-1.228.921,5.916,5.916,0,0,1-1.432.512l3.99,6.445h-3.274l-3.683-6.138h-2.864v6.138Zm2.864-8.7h3.887a2.787,2.787,0,0,0,2.046-.716,2.562,2.562,0,0,0,.818-1.841,2.4,2.4,0,0,0-.818-1.841,3.3,3.3,0,0,0-2.046-.716h-3.887Z" transform="translate(-4.23 -5.891)"/>
      <path id="Path_36" data-name="Path 36" class="cls-2" d="M120.2,22.668V6.3h4.092l4.4,10.742,4.5-10.742h4.092V22.668h-2.967V10.494L129.3,22.668h-1.228l-5.013-12.174V22.668Z" transform="translate(-3.883 -5.891)"/>
    </g>
  </g>
</svg>
