<svg xmlns="http://www.w3.org/2000/svg" width="115.992" height="25.659" viewBox="0 0 115.992 25.659"><g transform="translate(-280.507 -21.99)"><g transform="translate(280.507 21.99)"><path d="M160.938,285.278a38.5,38.5,0,0,0-12.987,0,7.458,7.458,0,0,0-5.744,5.76,38.832,38.832,0,0,0,0,13.025,7.458,7.458,0,0,0,5.744,5.76,38.488,38.488,0,0,0,12.985,0,7.458,7.458,0,0,0,5.744-5.76,38.82,38.82,0,0,0,0-13.025,7.458,7.458,0,0,0-5.742-5.76Z" transform="translate(-141.656 -284.721)" fill="#1070ca" fill-rule="evenodd"/></g><g transform="translate(286.994 29.384)"><path d="M170.722,329.875a14.284,14.284,0,0,1-2.066-.447,6.108,6.108,0,0,1-4.261-5.631c-.143-2.242-.029-4.5-.029-6.8h6.356Z" transform="translate(-164.323 -316.953)" fill="#fff"/><path d="M215.832,319.916a3.187,3.187,0,1,1-.945-2.269A3.191,3.191,0,0,1,215.832,319.916Z" transform="translate(-201.981 -316.725)" fill="#fff"/></g><g transform="translate(312.709 27.712)"><g transform="translate(0 0)"><path d="M105.773,335.908h2.04v1.127h.132a2.162,2.162,0,0,1,.4-.548,2.967,2.967,0,0,1,.557-.434,3.126,3.126,0,0,1,.664-.3,2.29,2.29,0,0,1,.705-.114,2.605,2.605,0,0,1,.737.092,1.9,1.9,0,0,1,.523.24l-.581,1.94a2.134,2.134,0,0,0-.439-.158,2.578,2.578,0,0,0-.589-.058,1.858,1.858,0,0,0-.81.176,1.785,1.785,0,0,0-.622.492,2.326,2.326,0,0,0-.4.742,2.933,2.933,0,0,0-.141.925v4h-2.172Z" transform="translate(-105.773 -332.027)" fill="#fff"/><path d="M120.286,342.077a4.559,4.559,0,0,1-1.52,1.608,4.216,4.216,0,0,1-2.33.614,4.457,4.457,0,0,1-1.717-.324,4.091,4.091,0,0,1-2.271-2.271,4.535,4.535,0,0,1-.323-1.733,4.442,4.442,0,0,1,.315-1.666,4.207,4.207,0,0,1,2.214-2.313,4.077,4.077,0,0,1,1.7-.348,4.424,4.424,0,0,1,1.741.323,3.552,3.552,0,0,1,1.277.9,3.861,3.861,0,0,1,.78,1.351,5.228,5.228,0,0,1,.265,1.692v.2a1.135,1.135,0,0,0-.016.182.949.949,0,0,0-.016.182h-6.118a2.269,2.269,0,0,0,.273.854,2.057,2.057,0,0,0,.515.6,1.964,1.964,0,0,0,.671.349,2.618,2.618,0,0,0,.747.107,2.113,2.113,0,0,0,1.235-.34,2.485,2.485,0,0,0,.771-.854Zm-1.975-3.151a1.423,1.423,0,0,0-.141-.481,1.7,1.7,0,0,0-.365-.5,1.9,1.9,0,0,0-.6-.381,2.212,2.212,0,0,0-.854-.149,1.99,1.99,0,0,0-1.227.4,2.1,2.1,0,0,0-.747,1.111Z" transform="translate(-106.339 -332.027)" fill="#fff"/><path d="M130.517,341.96a4.54,4.54,0,0,1-1.484,1.683,4.107,4.107,0,0,1-2.381.656,4.5,4.5,0,0,1-1.733-.324,4.025,4.025,0,0,1-1.359-.9,4.2,4.2,0,0,1-.9-1.368,4.535,4.535,0,0,1-.323-1.733,4.6,4.6,0,0,1,.323-1.741,4.022,4.022,0,0,1,2.256-2.263,4.514,4.514,0,0,1,1.733-.323,4.149,4.149,0,0,1,2.37.647,3.833,3.833,0,0,1,1.41,1.675l-1.99.829a2.155,2.155,0,0,0-.721-.854,1.966,1.966,0,0,0-1.1-.29,2.019,2.019,0,0,0-.81.166,2.088,2.088,0,0,0-.672.464,2.127,2.127,0,0,0-.456.729,2.873,2.873,0,0,0,0,1.925,2.117,2.117,0,0,0,.456.729,2.088,2.088,0,0,0,.672.464,2,2,0,0,0,.81.166,2.069,2.069,0,0,0,1.153-.307,2.132,2.132,0,0,0,.754-.887Z" transform="translate(-107.251 -332.026)" fill="#fff"/><path d="M132.685,335.908h2.04v1.128h.132a2.139,2.139,0,0,1,.4-.548,2.909,2.909,0,0,1,.557-.434,3.114,3.114,0,0,1,.663-.3,2.293,2.293,0,0,1,.706-.114,2.606,2.606,0,0,1,.737.092,1.884,1.884,0,0,1,.522.24l-.58,1.94a2.15,2.15,0,0,0-.439-.158,2.585,2.585,0,0,0-.589-.058,1.855,1.855,0,0,0-.81.176,1.785,1.785,0,0,0-.622.492,2.326,2.326,0,0,0-.4.742,2.932,2.932,0,0,0-.141.925v4h-2.172Z" transform="translate(-108.176 -332.027)" fill="#fff"/><path d="M145.705,343h-.132a2.762,2.762,0,0,1-1.028.97,3.009,3.009,0,0,1-1.476.355,2.762,2.762,0,0,1-2.3-.945,3.927,3.927,0,0,1-.754-2.521V335.93h2.172v4.66a1.874,1.874,0,0,0,.39,1.3,1.469,1.469,0,0,0,1.136.422,1.589,1.589,0,0,0,.788-.19,1.852,1.852,0,0,0,.581-.515,2.321,2.321,0,0,0,.364-.76,3.432,3.432,0,0,0,.125-.937v-3.98h2.172v8.125H145.7Z" transform="translate(-108.826 -332.051)" fill="#fff"/><path d="M151.743,334.46a1.385,1.385,0,0,1-.539-.108,1.368,1.368,0,0,1-.447-.3,1.4,1.4,0,0,1-.3-.439,1.448,1.448,0,0,1,0-1.095,1.4,1.4,0,0,1,.3-.439,1.41,1.41,0,0,1,1.982,0,1.394,1.394,0,0,1-1,2.38Zm-1.077,9.218v-8.125h2.172v8.125Z" transform="translate(-109.755 -331.673)" fill="#fff"/><path d="M156.01,337.547h-1.426v-1.858h1.426V333.2h2.172v2.487h1.99v1.858h-1.99v3.246a2.34,2.34,0,0,0,.058.539.884.884,0,0,0,.224.419.822.822,0,0,0,.663.273,1.383,1.383,0,0,0,.448-.058,1.417,1.417,0,0,0,.315-.158l.614,1.907a3.625,3.625,0,0,1-.822.273,4.761,4.761,0,0,1-.97.092,2.971,2.971,0,0,1-1.1-.2,2.349,2.349,0,0,1-.821-.533,2.893,2.893,0,0,1-.78-2.166Z" transform="translate(-110.129 -331.808)" fill="#fff"/><path d="M174.145,341.96a4.542,4.542,0,0,1-1.485,1.683,4.106,4.106,0,0,1-2.381.656,4.5,4.5,0,0,1-1.732-.324,4.016,4.016,0,0,1-1.359-.9,4.2,4.2,0,0,1-.9-1.368,4.518,4.518,0,0,1-.324-1.733,4.579,4.579,0,0,1,.324-1.741,4.017,4.017,0,0,1,2.255-2.263,4.513,4.513,0,0,1,1.732-.323,4.148,4.148,0,0,1,2.371.647,3.835,3.835,0,0,1,1.411,1.675l-1.991.829a2.141,2.141,0,0,0-.721-.854,1.964,1.964,0,0,0-1.1-.29,2.022,2.022,0,0,0-.81.166,2.076,2.076,0,0,0-.671.464,2.128,2.128,0,0,0-.456.729,2.873,2.873,0,0,0,0,1.925,2.118,2.118,0,0,0,.456.729,2.077,2.077,0,0,0,.671.464,2.007,2.007,0,0,0,.81.166,2.07,2.07,0,0,0,1.153-.307,2.132,2.132,0,0,0,.754-.887Z" transform="translate(-111.148 -332.026)" fill="#fff"/><path d="M176.311,335.908h2.04v1.127h.133a2.1,2.1,0,0,1,.4-.548,2.931,2.931,0,0,1,.557-.434,3.125,3.125,0,0,1,.664-.3,2.287,2.287,0,0,1,.7-.114,2.609,2.609,0,0,1,.738.092,1.9,1.9,0,0,1,.522.24l-.58,1.94a2.152,2.152,0,0,0-.439-.158,2.58,2.58,0,0,0-.589-.058,1.856,1.856,0,0,0-.81.176,1.785,1.785,0,0,0-.622.492,2.345,2.345,0,0,0-.4.742,2.932,2.932,0,0,0-.14.925v4h-2.173Z" transform="translate(-112.071 -332.027)" fill="#fff"/><path d="M183.722,335.907h2.04v1.061h.133a2.851,2.851,0,0,1,1.036-.962,2.937,2.937,0,0,1,1.451-.364,2.7,2.7,0,0,1,1.558.431,2.419,2.419,0,0,1,.9,1.064,3.324,3.324,0,0,1,1.077-1.054,3.112,3.112,0,0,1,1.691-.439,3.2,3.2,0,0,1,1.294.241,2.417,2.417,0,0,1,.9.671,2.942,2.942,0,0,1,.539,1.036,4.569,4.569,0,0,1,.182,1.317v5.124h-2.172v-4.726q0-1.658-1.359-1.658a1.509,1.509,0,0,0-.763.19,1.7,1.7,0,0,0-.557.515,2.529,2.529,0,0,0-.348.77,3.555,3.555,0,0,0-.125.962v3.946h-2.17v-4.726q0-1.658-1.426-1.658a1.385,1.385,0,0,0-.729.19,1.682,1.682,0,0,0-.531.517,2.512,2.512,0,0,0-.331.77,3.829,3.829,0,0,0-.115.962v3.946h-2.173Z" transform="translate(-112.733 -332.026)" fill="#fff"/></g></g></g></svg>