<svg id="Group_7999" data-name="Group 7999" xmlns="http://www.w3.org/2000/svg" width="18" height="18" viewBox="0 0 18 18">
  <circle id="Ellipse_375" data-name="Ellipse 375" cx="9" cy="9" r="9" fill="#2b3846"/>
  <path id="account-group" d="M5.833,5.5a1.69,1.69,0,1,1-1.7,1.69,1.7,1.7,0,0,1,1.7-1.69m-3.4,1.207a1.443,1.443,0,0,1,.744.2,2.659,2.659,0,0,0,.549,1.912A1.455,1.455,0,1,1,2.431,6.707m6.806,0A1.448,1.448,0,1,1,7.943,8.821,2.659,2.659,0,0,0,8.492,6.91a1.443,1.443,0,0,1,.744-.2M2.674,11.655c0-1,1.415-1.81,3.16-1.81s3.16.811,3.16,1.81V12.5H2.674v-.845M0,12.5v-.724c0-.671.919-1.236,2.163-1.4A1.944,1.944,0,0,0,1.7,11.655V12.5H0m11.667,0h-1.7v-.845A1.944,1.944,0,0,0,9.5,10.376c1.244.164,2.163.729,2.163,1.4Z" transform="translate(3.166 0)" fill="#fff"/>
</svg>
