<svg width="20" height="18" viewBox="0 0 20 18" fill="none" xmlns="http://www.w3.org/2000/svg">
<path d="M13.9423 6.75H19.1084C19.5965 6.75 19.9921 7.1328 19.9921 7.605V12.1576C19.9921 13.8931 18.538 15.3 16.7442 15.3H16.7289C14.9351 15.3002 13.4807 13.8936 13.4805 12.1581C13.4805 12.1583 13.4805 12.1579 13.4805 12.1581V7.1969C13.4805 6.95006 13.6873 6.75 13.9423 6.75Z" fill="#5059C9"/>
<path d="M17.4338 5.84982C18.5897 5.84982 19.5268 4.9432 19.5268 3.82481C19.5268 2.70643 18.5897 1.7998 17.4338 1.7998C16.2779 1.7998 15.3408 2.70643 15.3408 3.82481C15.3408 4.9432 16.2779 5.84982 17.4338 5.84982Z" fill="#5059C9"/>
<path d="M10.9226 5.85004C12.5924 5.85004 13.946 4.54046 13.946 2.92501C13.946 1.30958 12.5924 0 10.9226 0C9.25294 0 7.89941 1.30958 7.89941 2.92501C7.89941 4.54046 9.25294 5.85004 10.9226 5.85004Z" fill="#7B83EB"/>
<path d="M14.9538 6.75H6.42628C5.94402 6.76155 5.56252 7.1488 5.57371 7.6154V12.8079C5.50637 15.6079 7.79602 17.9316 10.6901 18.0001C13.584 17.9316 15.8737 15.6079 15.8063 12.8079V7.6154C15.8175 7.1488 15.436 6.76155 14.9538 6.75Z" fill="#7B83EB"/>
<path opacity="0.1" d="M11.1549 6.75V14.0265C11.1526 14.3602 10.9436 14.66 10.6247 14.787C10.5231 14.8286 10.414 14.85 10.3037 14.85H5.98279C5.92233 14.7015 5.86652 14.553 5.82 14.4C5.65719 13.8836 5.57411 13.3469 5.57348 12.807V7.614C5.5623 7.1482 5.94317 6.76155 6.42466 6.75H11.1549Z" fill="black"/>
<path opacity="0.2" d="M10.6898 6.75V14.4765C10.6898 14.5832 10.6676 14.6888 10.6247 14.787C10.4934 15.0956 10.1835 15.2978 9.83861 15.3H6.20141C6.12234 15.1515 6.04791 15.003 5.98279 14.85C5.91767 14.697 5.86652 14.553 5.82 14.4C5.65719 13.8837 5.57411 13.3469 5.57348 12.807V7.614C5.5623 7.1482 5.94317 6.76155 6.42466 6.75H10.6898Z" fill="black"/>
<path opacity="0.2" d="M10.6898 6.75V13.5765C10.6862 14.0299 10.3072 14.3966 9.83861 14.4H5.82C5.65719 13.8837 5.57411 13.3469 5.57348 12.807V7.614C5.5623 7.1482 5.94317 6.76155 6.42466 6.75H10.6898Z" fill="black"/>
<path opacity="0.2" d="M10.2247 6.75V13.5765C10.2211 14.0299 9.84211 14.3966 9.37351 14.4H5.82C5.65719 13.8837 5.57411 13.3469 5.57348 12.807V7.614C5.5623 7.1482 5.94317 6.76155 6.42466 6.75H10.2247Z" fill="black"/>
<path opacity="0.1" d="M11.155 4.42359V5.8411C11.0759 5.8456 11.0015 5.8501 10.9225 5.8501C10.8434 5.8501 10.769 5.84561 10.6899 5.8411C10.5329 5.83102 10.3772 5.80692 10.2248 5.7691C9.2829 5.5533 8.50479 4.91422 8.13179 4.05009C8.06759 3.90498 8.01769 3.7543 7.98291 3.6001H10.3039C10.7732 3.60182 11.1532 3.96949 11.155 4.42359Z" fill="black"/>
<path opacity="0.2" d="M10.69 4.8733V5.8408C10.533 5.83072 10.3773 5.80662 10.2249 5.76881C9.28304 5.55301 8.50494 4.91393 8.13184 4.0498H9.83884C10.3082 4.05152 10.6882 4.41921 10.69 4.8733Z" fill="black"/>
<path opacity="0.2" d="M10.69 4.8733V5.8408C10.533 5.83072 10.3773 5.80662 10.2249 5.76881C9.28304 5.55301 8.50494 4.91393 8.13184 4.0498H9.83884C10.3082 4.05152 10.6882 4.41921 10.69 4.8733Z" fill="black"/>
<path opacity="0.2" d="M10.2249 4.87331V5.76881C9.28304 5.55301 8.50494 4.91393 8.13184 4.0498H9.37374C9.84314 4.05153 10.2231 4.41922 10.2249 4.87331Z" fill="black"/>
<path d="M0.844742 4.0498H9.37223C9.84314 4.0498 10.2247 4.41911 10.2247 4.87465V13.125C10.2247 13.5805 9.84304 13.9498 9.37223 13.9498H0.844742C0.373889 13.9498 -0.0078125 13.5805 -0.0078125 13.125V4.87465C-0.0078125 4.41911 0.373899 4.0498 0.844742 4.0498Z" fill="url(#paint0_linear_231_1967)"/>
<path d="M7.35221 7.19H5.64754V11.681H4.56149V7.19H2.86475V6.31885H7.35221V7.19Z" fill="white"/>
<defs>
<linearGradient id="paint0_linear_231_1967" x1="1.7698" y1="3.40528" x2="8.12173" y2="14.7762" gradientUnits="userSpaceOnUse">
<stop stop-color="#5A62C3"/>
<stop offset="0.5" stop-color="#4D55BD"/>
<stop offset="1" stop-color="#3940AB"/>
</linearGradient>
</defs>
</svg>
