<svg width="24" height="24" viewBox="0 0 24 24" fill="none" xmlns="http://www.w3.org/2000/svg">
<circle cx="12" cy="12" r="12" fill="#D3D3D3"/>
<g clip-path="url(#clip0_656_3358)">
<path d="M12 7.97913C12.5028 7.97913 12.985 8.17887 13.3406 8.5344C13.6961 8.88994 13.8958 9.37215 13.8958 9.87496C13.8958 10.3778 13.6961 10.86 13.3406 11.2155C12.985 11.5711 12.5028 11.7708 12 11.7708C11.4972 11.7708 11.015 11.5711 10.6594 11.2155C10.3039 10.86 10.1042 10.3778 10.1042 9.87496C10.1042 9.37215 10.3039 8.88994 10.6594 8.5344C11.015 8.17887 11.4972 7.97913 12 7.97913ZM8.20833 9.33329C8.51167 9.33329 8.79333 9.41454 9.03708 9.56079C8.95583 10.3354 9.18333 11.1045 9.64917 11.7058C9.37833 12.2258 8.83667 12.5833 8.20833 12.5833C7.77736 12.5833 7.36403 12.4121 7.05928 12.1073C6.75454 11.8026 6.58333 11.3893 6.58333 10.9583C6.58333 10.5273 6.75454 10.114 7.05928 9.80924C7.36403 9.5045 7.77736 9.33329 8.20833 9.33329ZM15.7917 9.33329C16.2226 9.33329 16.636 9.5045 16.9407 9.80924C17.2455 10.114 17.4167 10.5273 17.4167 10.9583C17.4167 11.3893 17.2455 11.8026 16.9407 12.1073C16.636 12.4121 16.2226 12.5833 15.7917 12.5833C15.1633 12.5833 14.6217 12.2258 14.3508 11.7058C14.8167 11.1045 15.0442 10.3354 14.9629 9.56079C15.2067 9.41454 15.4883 9.33329 15.7917 9.33329ZM8.47917 14.8854C8.47917 13.7641 10.0554 12.8541 12 12.8541C13.9446 12.8541 15.5208 13.7641 15.5208 14.8854V15.8333H8.47917V14.8854ZM5.5 15.8333V15.0208C5.5 14.2679 6.52375 13.6341 7.91042 13.45C7.59083 13.8183 7.39583 14.3275 7.39583 14.8854V15.8333H5.5ZM18.5 15.8333H16.6042V14.8854C16.6042 14.3275 16.4092 13.8183 16.0896 13.45C17.4762 13.6341 18.5 14.2679 18.5 15.0208V15.8333Z" fill="#747474"/>
</g>
<defs>
<clipPath id="clip0_656_3358">
<rect width="13" height="13" fill="white" transform="translate(5.5 5)"/>
</clipPath>
</defs>
</svg>
