<svg width="24" height="24" viewBox="0 0 24 24" fill="none" xmlns="http://www.w3.org/2000/svg">
<circle cx="12" cy="12" r="12" fill="#D3D3D3"/>
<path d="M11.9997 6.58337C11.2883 6.58337 10.584 6.72348 9.92681 6.99569C9.26963 7.26791 8.6725 7.66689 8.16951 8.16988C7.15369 9.1857 6.58301 10.5635 6.58301 12C6.58301 13.4366 7.15369 14.8144 8.16951 15.8302C8.6725 16.3332 9.26963 16.7322 9.92681 17.0044C10.584 17.2766 11.2883 17.4167 11.9997 17.4167C13.4363 17.4167 14.814 16.846 15.8298 15.8302C16.8457 14.8144 17.4163 13.4366 17.4163 12C17.4163 11.2887 17.2762 10.5844 17.004 9.92717C16.7318 9.26999 16.3328 8.67286 15.8298 8.16988C15.3269 7.66689 14.7297 7.26791 14.0725 6.99569C13.4154 6.72348 12.711 6.58337 11.9997 6.58337ZM9.32926 15.4017C9.56217 14.9142 10.9813 14.4375 11.9997 14.4375C13.018 14.4375 14.4372 14.9142 14.6701 15.4017C13.9334 15.9867 13.0072 16.3334 11.9997 16.3334C10.9922 16.3334 10.0659 15.9867 9.32926 15.4017ZM15.4447 14.6163C14.6701 13.6738 12.7905 13.3542 11.9997 13.3542C11.2088 13.3542 9.32926 13.6738 8.55467 14.6163C8.00217 13.8959 7.66634 12.9859 7.66634 12C7.66634 9.61129 9.61092 7.66671 11.9997 7.66671C14.3884 7.66671 16.333 9.61129 16.333 12C16.333 12.9859 15.9972 13.8959 15.4447 14.6163ZM11.9997 8.75004C10.9488 8.75004 10.1038 9.59504 10.1038 10.6459C10.1038 11.6967 10.9488 12.5417 11.9997 12.5417C13.0505 12.5417 13.8955 11.6967 13.8955 10.6459C13.8955 9.59504 13.0505 8.75004 11.9997 8.75004ZM11.9997 11.4584C11.7842 11.4584 11.5775 11.3728 11.4251 11.2204C11.2728 11.068 11.1872 10.8614 11.1872 10.6459C11.1872 10.4304 11.2728 10.2237 11.4251 10.0713C11.5775 9.91898 11.7842 9.83337 11.9997 9.83337C12.2152 9.83337 12.4218 9.91898 12.5742 10.0713C12.7266 10.2237 12.8122 10.4304 12.8122 10.6459C12.8122 10.8614 12.7266 11.068 12.5742 11.2204C12.4218 11.3728 12.2152 11.4584 11.9997 11.4584Z" fill="#747474"/>
</svg>
